<?xml version="1.0" standalone="no"?><!DOCTYPE svg PUBLIC "-//W3C//DTD SVG 1.1//EN" "http://www.w3.org/Graphics/SVG/1.1/DTD/svg11.dtd"><svg t="1516609769968" class="icon" style="" viewBox="0 0 1024 1024" version="1.1" xmlns="http://www.w3.org/2000/svg" p-id="40081" xmlns:xlink="http://www.w3.org/1999/xlink" width="48" height="48"><defs><style type="text/css"></style></defs><path d="M229.76512 794.23488c155.61728 155.61728 408.84224 155.61728 564.45952 0s155.61728-408.84224 0-564.45952-408.84224-155.61728-564.45952 0S74.14784 638.60736 229.76512 794.23488zM260.73088 260.72064c138.55744-138.55744 364.00128-138.55744 502.55872 0 138.53696 138.5472 138.53696 364.00128 0 502.55872-138.55744 138.5472-364.02176 138.5472-502.55872 0C122.17344 624.72192 122.17344 399.26784 260.73088 260.72064zM240.83456 378.66496c21.63712-4.85376 46.75584-7.424 72.64256-7.424 56.55552 0 187.00288 13.53728 277.06368 127.01696l0.29696-0.29696 58.39872-134.69696c1.97632-4.49536 6.69696-7.168 11.56096-6.48192 2.43712 0.34816 4.59776 1.47456 6.23616 3.11296 1.65888 1.65888 2.77504 3.86048 3.10272 6.31808l43.85792 335.48288c0.41984 3.36896-0.69632 6.7584-3.1232 9.17504-2.39616 2.38592-5.79584 3.55328-9.1648 3.11296l-335.48288-43.85792c-4.90496-0.62464-8.74496-4.4544-9.4208-9.3184-0.69632-4.88448 1.95584-9.60512 6.48192-11.58144l134.69696-58.39872 12.02176-12.02176c-57.7024-81.58208-145.08032-94.6688-194.53952-94.6688-29.31712 0-49.39776 4.33152-50.23744 4.5056-2.74432 0.59392-5.4784-1.1264-6.08256-3.8912l-22.20032-99.97312C236.32896 382.02368 238.06976 379.2896 240.83456 378.66496z" p-id="40082" fill="#535b73"></path></svg>