<?xml version="1.0" standalone="no"?><!DOCTYPE svg PUBLIC "-//W3C//DTD SVG 1.1//EN" "http://www.w3.org/Graphics/SVG/1.1/DTD/svg11.dtd"><svg t="1516862256019" class="icon" style="" viewBox="0 0 1024 1024" version="1.1" xmlns="http://www.w3.org/2000/svg" p-id="40684" xmlns:xlink="http://www.w3.org/1999/xlink" width="48" height="48"><defs><style type="text/css"></style></defs><path d="M805.333 884.294c0 11.106-10.948 20.109-24.454 20.109H529.452c-13.505 0-24.453-9.003-24.453-20.109 0-11.106 10.948-20.109 24.453-20.109h251.427c13.506 0 24.454 9.003 24.454 20.109z" fill="#535C74" p-id="40685"></path><path d="M517.482 143.072c-210.236 0-380.666 170.43-380.666 380.667 0 210.235 170.43 380.665 380.666 380.665 210.235 0 380.665-170.43 380.665-380.665 0-210.238-170.429-380.667-380.665-380.667z m0 702.833c-177.929 0-322.168-144.238-322.168-322.167 0-177.93 144.239-322.169 322.168-322.169s322.169 144.239 322.169 322.169c0 177.929-144.24 322.167-322.169 322.167z" fill="#535C74" p-id="40686"></path><path d="M512.971 234.17c-56.091 0-101.562 45.471-101.562 101.562s45.471 101.562 101.562 101.562 101.562-45.471 101.562-101.562S569.062 234.17 512.971 234.17z m0 178.374c-42.422 0-76.813-34.391-76.813-76.813 0-42.423 34.39-76.813 76.813-76.813 42.422 0 76.813 34.39 76.813 76.813-0.001 42.422-34.391 76.813-76.813 76.813zM690.42 410.439c-56.091 0-101.562 45.471-101.562 101.562s45.471 101.562 101.562 101.562S791.981 568.092 791.981 512c0-56.09-45.47-101.561-101.561-101.561z m0 178.374c-42.422 0-76.813-34.391-76.813-76.812 0-42.423 34.391-76.813 76.813-76.813s76.813 34.39 76.813 76.813c-0.001 42.421-34.391 76.812-76.813 76.812zM337.462 410.439C281.371 410.439 235.9 455.91 235.9 512c0 56.091 45.471 101.562 101.562 101.562S439.023 568.092 439.023 512c0-56.09-45.47-101.561-101.561-101.561z m0 178.374c-42.422 0-76.813-34.391-76.813-76.812 0-42.423 34.391-76.813 76.813-76.813s76.813 34.39 76.813 76.813c-0.001 42.421-34.391 76.812-76.813 76.812zM512.971 587.207c-56.091 0-101.562 45.471-101.562 101.562S456.88 790.33 512.971 790.33s101.562-45.471 101.562-101.562-45.471-101.561-101.562-101.561z m0 178.374c-42.422 0-76.813-34.391-76.813-76.813 0-42.423 34.39-76.813 76.813-76.813 42.422 0 76.813 34.39 76.813 76.813-0.001 42.422-34.391 76.813-76.813 76.813z" fill="#535C74" p-id="40687"></path></svg>