<svg width="22px" height="22px" viewBox="118 0 22 22" version="1.1" xmlns="http://www.w3.org/2000/svg" xmlns:xlink="http://www.w3.org/1999/xlink">
  <g id="brush" stroke="none" class="draw-icon" stroke-width="1" fill="#EBF0FF" fill-rule="evenodd" transform="translate(118.000000, 0.000000)">
    <path d="M9.3995,12.7501 C9.1564,12.6269 8.9089,12.529 8.6647,12.4498 C7.8287,12.5477 4.5232,13.2979 4.2493,15.9038 C3.8588,19.5943 1.4289,18.9739 0.8723,19.0212 C0.55,19.0487 1.1704,21.252 3.8511,21.3521 C6.5054,21.45 11.231,19.7351 11.4257,15.3692 L11.4686,15.3175 C11.1309,13.9546 10.3026,13.2176 9.3995,12.7501" id="Fill-1"></path>
    <path d="M19.2852,1.0296 L11.9988,9.7504 C11.4213,9.7284 10.8383,9.9649 10.4368,10.4456 L9.3291,11.7711 C9.4798,11.8305 9.6305,11.8976 9.7823,11.9735 C10.7184,12.4322 11.6369,13.2484 12.1242,14.5321 L13.4156,12.9866 C13.8182,12.5048 13.9513,11.8866 13.8336,11.3135 L21.1189,2.5938 C21.5468,2.0812 21.483,1.3167 20.9759,0.8855 C20.4699,0.4532 19.7131,0.5181 19.2852,1.0296 Z" id="Fill-2"></path>
  </g>
</svg>
