<?xml version="1.0" encoding="UTF-8"?>
<svg width="26px" height="23px" viewBox="0 0 26 23" version="1.1" xmlns="http://www.w3.org/2000/svg" xmlns:xlink="http://www.w3.org/1999/xlink">
    <!-- Generator: Sketch 48 (47235) - http://www.bohemiancoding.com/sketch -->
    <title>同步播放 copy@3x</title>
    <desc>Created with Sketch.</desc>
    <defs></defs>
    <g id="Page-1" stroke="none" stroke-width="1" fill="none" fill-rule="evenodd">
        <g id="同步播放-copy" fill="#986a3f" fill-rule="nonzero">
            <path d="M25.380799,11.4864128 L24.5628204,11.5018466 C24.4529427,6.85936918 21.6663216,2.65829754 17.3627775,0.877240714 C12.7845391,-1.01802599 7.50125193,0.222848952 4.22018107,3.97016781 C3.89970438,4.33440474 3.93327813,4.89310714 4.29343289,5.21412951 C4.65053548,5.53515189 5.20297625,5.50428435 5.52345294,5.14004743 C8.31007405,1.95143096 12.7997999,0.895761235 16.700459,2.51013336 C20.3569454,4.02572938 22.7254207,7.59092978 22.8230898,11.5358009 L21.9318594,11.5543214 C21.425201,11.5635817 21.1535589,12.1562383 21.4709834,12.5544296 L23.2351313,14.7707186 C23.4854083,15.0824808 23.9584929,15.0763072 24.1965613,14.7521981 L25.8783009,12.4680005 C26.1804647,12.0574622 25.8844052,11.4771526 25.380799,11.4864128 Z" id="Shape"></path>
            <path d="M21.705019,17.7842502 C21.3448382,17.4601947 20.7923575,17.4941434 20.47491,17.85832 C17.6880874,21.0464085 13.1949845,22.1019034 9.30014813,20.4877986 C5.64339733,18.9755398 3.27475073,15.4078435 3.17707459,11.4636255 L4.06836944,11.4451081 C4.57506446,11.4358494 4.84672625,10.8432908 4.52927876,10.4451655 L2.76500334,8.2292434 C2.51470821,7.9175329 2.04158936,7.92370539 1.80350375,8.24776085 L0.121642572,10.5315803 C-0.180543012,10.9420506 0.115537812,11.5222641 0.622232832,11.5130054 L1.44027057,11.4975742 C1.55015624,16.1392829 4.33697885,20.339659 8.64083413,22.1204209 C10.0693478,22.7129794 11.5680662,23 13.0515227,23 C16.3236737,22.9969138 19.5286723,21.6050184 21.7813285,19.0280059 C22.0987759,18.6638293 22.0682521,18.1052194 21.705019,17.7842502 Z" id="Shape"></path>
            <path d="M10,6.7997214 L10,16.1452275 C10,16.9354725 10.4144311,17.2103403 10.906568,16.832397 L16.6308973,12.2283609 C17.1230342,11.8160592 17.1230342,11.1632481 16.6308973,10.7853049 L10.906568,6.1812688 C10.7511563,6.04383489 10.6216466,6.0094764 10.4921369,6.0094764 C10.2072155,5.94075944 10,6.24998574 10,6.7997214 Z" id="Shape"></path>
        </g>
    </g>
</svg>