<?xml version="1.0" standalone="no"?><!DOCTYPE svg PUBLIC "-//W3C//DTD SVG 1.1//EN" "http://www.w3.org/Graphics/SVG/1.1/DTD/svg11.dtd"><svg t="1516092363962" class="icon" style="" viewBox="0 0 1024 1024" version="1.1" xmlns="http://www.w3.org/2000/svg" p-id="1036" xmlns:xlink="http://www.w3.org/1999/xlink" width="48" height="48"><defs><style type="text/css"></style></defs><path d="M560.64 828.586667a287.573333 287.573333 0 0 1-362.666667-361.813334 85.333333 85.333333 0 0 0-162.133333-52.053333 458.24 458.24 0 0 0 576.853333 576.853333 85.333333 85.333333 0 0 0-52.053333-162.133333zM463.36 199.68a287.573333 287.573333 0 0 1 362.666667 361.813333 85.333333 85.333333 0 1 0 162.133333 52.053334A458.24 458.24 0 0 0 411.306667 37.546667a85.333333 85.333333 0 0 0 52.053333 162.133333zM311.466667 432.64a85.333333 85.333333 0 0 0 121.173333-121.173333L153.6 32.426667A85.333333 85.333333 0 0 0 32.426667 153.6zM991.573333 870.4L712.533333 591.36a85.333333 85.333333 0 0 0-121.173333 121.173333l279.04 279.04a85.333333 85.333333 0 0 0 120.32-120.32z" p-id="1037" fill="#ffffff"></path></svg>