<?xml version="1.0" standalone="no"?><!DOCTYPE svg PUBLIC "-//W3C//DTD SVG 1.1//EN" "http://www.w3.org/Graphics/SVG/1.1/DTD/svg11.dtd"><svg t="1516091963718" class="icon" style="" viewBox="0 0 1024 1024" version="1.1" xmlns="http://www.w3.org/2000/svg" p-id="14892" xmlns:xlink="http://www.w3.org/1999/xlink" width="48" height="48"><defs><style type="text/css"></style></defs><path d="M471.26832 93.288686 210.249515 328.815911l-99.187023 0c-31.716352 0-57.426921 23.431665-57.426921 52.339042L53.635571 616.678084c0 28.904307 25.710568 52.339042 57.426921 52.339042l99.187023 0 261.018805 261.694187c28.831652 0 52.201919-23.431665 52.201919-52.340065L523.470239 145.627728C523.470239 116.719328 500.098949 93.288686 471.26832 93.288686z" p-id="14893" fill="#ffffff"></path><path d="M817.595047 511.998977c0-97.955986-46.306652-184.647417-117.731378-240.883209-1.989307-2.282996-4.352121-4.018523-6.876618-5.705955-0.191358-0.141216-0.356111-0.312108-0.547469-0.454348l-0.035816 0.060375c-5.301749-3.38919-11.237949-5.856381-17.995863-5.856381-18.85237 0-35.732829 17.599843-34.133402 34.133402-0.533143 20.266579 17.827017 31.135114 17.827017 31.135114 55.483662 43.754526 91.226724 111.426789 91.226724 187.571003s-35.742039 143.81443-91.224678 187.568956l0.239454 0.412392c-10.602476 5.791913-18.068518 16.648169-18.068518 29.579689 0 18.850323 15.281031 34.133402 34.133402 34.133402 6.55223 0 12.322653-2.337231 17.521049-5.53711l0.512676 0.887206C768.226662 703.098339 817.595047 613.426017 817.595047 511.998977z" p-id="14894" fill="#ffffff"></path><path d="M760.425999 99.16758l-0.444115 0.766456c-5.381567-3.541663-11.45182-6.112208-18.374486-6.112208-18.85237 0-34.133402 15.281031-34.133402 34.133402 0 13.301957 7.819083 24.52251 18.922978 30.153764l-0.305969 0.529049c106.320491 73.989131 176.049598 196.904579 176.049598 336.254324S832.411497 757.154489 726.091006 831.144644l0.301875 0.524956c-11.101849 5.631254-18.918885 16.84976-18.918885 30.151717 0 18.850323 15.281031 34.133402 34.133402 34.133402 6.922666 0 12.993942-2.570545 18.372439-6.112208l0.448208 0.774643c126.70168-85.939301 209.979362-231.093239 209.979362-395.724787C970.407408 330.258773 887.128703 185.106882 760.425999 99.16758z" p-id="14895" fill="#ffffff"></path></svg>